<svg width="46" height="28" viewBox="0 0 46 28" fill="none" xmlns="http://www.w3.org/2000/svg">
<path d="M30.9688 15.9688C32.7188 15.9688 34.625 16.2188 36.6875 16.7188C38.75 17.2188 40.6562 18.0312 42.4062 19.1562C44.1562 20.2812 45.0312 21.5625 45.0312 23V27.9688H33.0312V23C33.0312 20.25 31.7188 17.9375 29.0938 16.0625C29.5312 16 30.1562 15.9688 30.9688 15.9688ZM9.3125 16.7188C11.375 16.2188 13.2812 15.9688 15.0312 15.9688C16.7812 15.9688 18.6875 16.2188 20.75 16.7188C22.8125 17.2188 24.6875 18.0312 26.375 19.1562C28.125 20.2812 29 21.5625 29 23V27.9688H0.96875V23C0.96875 21.5625 1.84375 20.2812 3.59375 19.1562C5.34375 18.0312 7.25 17.2188 9.3125 16.7188ZM19.1562 10.25C18.0312 11.4375 16.6562 12.0312 15.0312 12.0312C13.4062 12.0312 12 11.4375 10.8125 10.25C9.625 9.0625 9.03125 7.65625 9.03125 6.03125C9.03125 4.40625 9.625 3 10.8125 1.8125C12 0.625 13.4062 0.03125 15.0312 0.03125C16.6562 0.03125 18.0312 0.625 19.1562 1.8125C20.3438 3 20.9375 4.40625 20.9375 6.03125C20.9375 7.65625 20.3438 9.0625 19.1562 10.25ZM35.1875 10.25C34 11.4375 32.5938 12.0312 30.9688 12.0312C29.3438 12.0312 27.9375 11.4375 26.75 10.25C25.5625 9.0625 24.9688 7.65625 24.9688 6.03125C24.9688 4.40625 25.5625 3 26.75 1.8125C27.9375 0.625 29.3438 0.03125 30.9688 0.03125C32.5938 0.03125 34 0.625 35.1875 1.8125C36.375 3 36.9688 4.40625 36.9688 6.03125C36.9688 7.65625 36.375 9.0625 35.1875 10.25Z" fill="#C1C1C1"/>
</svg>
