<svg width="40" height="28" viewBox="0 0 40 28" fill="none" xmlns="http://www.w3.org/2000/svg">
<path d="M28.5312 15.4062C28.9688 15.7812 29.4688 15.9688 30.0312 15.9688C30.5938 15.9688 31.0625 15.7812 31.4375 15.4062C31.8125 15.0312 32 14.5625 32 14C32 13.4375 31.8125 12.9688 31.4375 12.5938C31.0625 12.2188 30.5938 12.0312 30.0312 12.0312C29.4688 12.0312 28.9688 12.2188 28.5312 12.5938C28.1562 12.9688 27.9688 13.4375 27.9688 14C27.9688 14.5625 28.1562 15.0312 28.5312 15.4062ZM24.5938 9.40625C24.9688 9.78125 25.4375 9.96875 26 9.96875C26.5625 9.96875 27.0312 9.78125 27.4062 9.40625C27.7812 9.03125 27.9688 8.5625 27.9688 8C27.9688 7.4375 27.7812 6.96875 27.4062 6.59375C27.0312 6.21875 26.5625 6.03125 26 6.03125C25.4375 6.03125 24.9688 6.21875 24.5938 6.59375C24.2188 6.96875 24.0312 7.4375 24.0312 8C24.0312 8.5625 24.2188 9.03125 24.5938 9.40625ZM18.0312 12.0312V9.96875H14V6.03125H12.0312V9.96875H8V12.0312H12.0312V15.9688H14V12.0312H18.0312ZM39.125 22.1562C39.375 23.7188 38.9688 25.0938 37.9062 26.2812C36.9062 27.4062 35.625 27.9688 34.0625 27.9688C32.6875 27.9688 31.5 27.4688 30.5 26.4688L26 21.9688H14L9.5 26.4688C8.5 27.4688 7.28125 27.9688 5.84375 27.9688C4.40625 27.9688 3.1875 27.5 2.1875 26.5625C1.25 25.5625 0.78125 24.3438 0.78125 22.9062C0.78125 22.8438 0.78125 22.7188 0.78125 22.5312C0.84375 22.3438 0.875 22.2188 0.875 22.1562L3.03125 6.875C3.28125 4.9375 4.15625 3.3125 5.65625 2C7.15625 0.6875 8.90625 0.03125 10.9062 0.03125H29.0938C31.0312 0.03125 32.75 0.71875 34.25 2.09375C35.75 3.40625 36.6562 5 36.9688 6.875L39.125 22.1562Z" fill="#C1C1C1"/>
</svg>
