<svg width="36" height="36" viewBox="0 0 36 36" fill="none" xmlns="http://www.w3.org/2000/svg">
<path d="M31.9688 7.96875C33.0938 7.96875 34.0312 8.375 34.7812 9.1875C35.5938 9.9375 36 10.875 36 12V31.9688C36 33.0938 35.5938 34.0625 34.7812 34.875C34.0312 35.625 33.0938 36 31.9688 36H12C10.875 36 9.90625 35.625 9.09375 34.875C8.34375 34.0625 7.96875 33.0938 7.96875 31.9688V12C7.96875 10.875 8.34375 9.9375 9.09375 9.1875C9.90625 8.375 10.875 7.96875 12 7.96875H31.9688ZM31.9688 12H12V16.0312H31.9688V12ZM19.9688 24H24V19.9688H19.9688V24ZM24 28.0312H19.9688V31.9688H24V28.0312ZM16.0312 24V19.9688H12V24H16.0312ZM28.0312 19.9688V24H31.9688V19.9688H28.0312ZM12 28.0312V31.9688H16.0312V28.0312H12ZM28.0312 31.9688H31.9688V28.0312H28.0312V31.9688ZM6 28.0312V24H4.03125V4.03125H24V6H28.0312V4.03125C28.0312 2.90625 27.625 1.96875 26.8125 1.21875C26.0625 0.40625 25.125 0 24 0H4.03125C2.90625 0 1.9375 0.40625 1.125 1.21875C0.375 1.96875 0 2.90625 0 4.03125V24C0 25.125 0.375 26.0938 1.125 26.9062C1.9375 27.6562 2.90625 28.0312 4.03125 28.0312H6Z" fill="#C1C1C1"/>
</svg>
